<svg viewBox="0 0 50 50" focusable="false" class="icon icon-google"><g fill="none" fill-rule="evenodd"><rect fill="#FFF" width="50" height="50" rx="1"></rect><path d="M47.4 25.53a26.81 26.81 0 00-.424-4.772H25v9.025h12.558c-.541 2.917-2.185 5.388-4.656 7.043v5.854h7.54c4.413-4.062 6.958-10.044 6.958-17.15z" fill="#4285F4"></path><path d="M25 48.333c6.3 0 11.582-2.09 15.442-5.653l-7.54-5.854c-2.09 1.4-4.763 2.227-7.902 2.227-6.077 0-11.221-4.105-13.056-9.62H4.148v6.046C7.988 43.105 15.878 48.333 25 48.333z" fill="#34A853"></path><path d="M11.944 29.433A14.026 14.026 0 0111.212 25c0-1.538.265-3.033.732-4.433V14.52H4.148A23.324 23.324 0 001.667 25c0 3.765.901 7.329 2.481 10.479l7.796-6.046z" fill="#FBBC05"></path><path d="M25 10.947c3.426 0 6.502 1.177 8.92 3.49l6.692-6.693C36.572 3.979 31.29 1.667 25 1.667c-9.121 0-17.012 5.228-20.852 12.854l7.796 6.046c1.835-5.515 6.979-9.62 13.056-9.62z" fill="#EA4335"></path><path d="M1.667 1.667h46.666v46.666H1.667z"></path></g></svg>