<svg xmlns="http://www.w3.org/2000/svg" xmlns:xlink="http://www.w3.org/1999/xlink" viewBox="0 0 80 81"><defs><filter id="b" width="118.3%" height="118%" x="-9.2%" y="-9%" filterUnits="objectBoundingBox"><feMorphology in="SourceAlpha" radius="1" result="shadowSpreadInner1"/><feOffset dx="1" dy="4" in="shadowSpreadInner1" result="shadowOffsetInner1"/><feComposite in="shadowOffsetInner1" in2="SourceAlpha" k2="-1" k3="1" operator="arithmetic" result="shadowInnerInner1"/><feColorMatrix in="shadowInnerInner1" values="0 0 0 0 0.501960784 0 0 0 0 0.870588235 0 0 0 0 0.976470588 0 0 0 1 0"/></filter><path id="a" d="M37.65 71.334c.556.505 1.352.793 2.148.793.398 0 .717-.072 1.115-.144 1.034-.432 1.83-1.441 1.83-2.45V51.952h25.312c1.671 0 2.945-1.153 2.945-2.666V22.049c0-1.513-1.274-2.666-2.945-2.666H42.743V2.666c0-1.08-.716-2.018-1.83-2.45A2.768 2.768 0 0 0 39.798 0c-.796 0-1.512.288-2.149.793L.876 34.154C.318 34.658 0 35.38 0 36.027c0 .721.318 1.297.876 1.874l36.773 33.433Z"/></defs><g fill="none" fill-rule="nonzero" transform="matrix(-1 0 0 1 75.606 4.704)"><use xlink:href="#a" fill="#02BEF3"/><use xlink:href="#a" fill="#000" filter="url(#b)"/><path stroke="#000" stroke-width="4" d="M39.798-2c.674 0 1.342.135 1.887.371.91.363 1.648.94 2.168 1.636.573.768.89 1.682.89 2.659v14.717h23.312c1.378 0 2.577.5 3.442 1.283A4.51 4.51 0 0 1 73 22.049v27.237a4.51 4.51 0 0 1-1.503 3.383c-.865.782-2.064 1.283-3.442 1.283H44.743v15.581c0 .909-.322 1.831-.91 2.62a5.237 5.237 0 0 1-2.15 1.675c-1.06.243-1.434.299-1.885.299-1.298 0-2.586-.49-3.494-1.313L-.514 39.341C-1.518 38.32-2 37.28-2 36.027c0-1.152.535-2.452 1.532-3.354L36.35-.73C37.37-1.555 38.525-2 39.798-2Z"/></g></svg>